<svg width="20" height="20" viewBox="0 0 20 20" fill="none" xmlns="http://www.w3.org/2000/svg">
<path d="M7.5 5C7.5 5.66304 7.76339 6.29893 8.23223 6.76777C8.70107 7.23661 9.33696 7.5 10 7.5C10.663 7.5 11.2989 7.23661 11.7678 6.76777C12.2366 6.29893 12.5 5.66304 12.5 5C12.5 4.33696 12.2366 3.70107 11.7678 3.23223C11.2989 2.76339 10.663 2.5 10 2.5C9.33696 2.5 8.70107 2.76339 8.23223 3.23223C7.76339 3.70107 7.5 4.33696 7.5 5Z" stroke="white" stroke-width="1.75" stroke-linecap="round" stroke-linejoin="round"/>
<path d="M5.69586 7.5H14.3042C14.4994 7.49997 14.6883 7.56844 14.8382 7.69347C14.988 7.8185 15.0893 7.99216 15.1242 8.18417L16.4884 15.6842C16.5102 15.8043 16.5054 15.9277 16.4743 16.0458C16.4432 16.1638 16.3865 16.2736 16.3083 16.3673C16.23 16.461 16.1322 16.5364 16.0216 16.5882C15.911 16.6399 15.7904 16.6667 15.6684 16.6667H4.33169C4.20961 16.6667 4.08902 16.6399 3.97844 16.5882C3.86786 16.5364 3.77 16.461 3.69178 16.3673C3.61356 16.2736 3.55688 16.1638 3.52576 16.0458C3.49464 15.9277 3.48984 15.8043 3.51169 15.6842L4.87586 8.18417C4.91079 7.99216 5.01201 7.8185 5.16186 7.69347C5.31171 7.56844 5.50069 7.49997 5.69586 7.5Z" stroke="white" stroke-width="1.75" stroke-linecap="round" stroke-linejoin="round"/>
</svg>
