<svg width="20" height="20" viewBox="0 0 20 20" fill="none" xmlns="http://www.w3.org/2000/svg">
<path d="M7.5575 4.21167L7.91667 3.75C7.9895 3.60853 8.11054 3.49777 8.25791 3.43774C8.40528 3.37772 8.56925 3.37238 8.72021 3.4227C8.87117 3.47302 8.99915 3.57568 9.08103 3.71212C9.16291 3.84856 9.19328 4.00979 9.16667 4.16667V5.83333M9.16667 9.16667V15.8333C9.19328 15.9902 9.16291 16.1514 9.08103 16.2879C8.99915 16.4243 8.87117 16.527 8.72021 16.5773C8.56925 16.6276 8.40528 16.6223 8.25791 16.5623C8.11054 16.5022 7.9895 16.3915 7.91667 16.25L5 12.5H3.33333C3.11232 12.5 2.90036 12.4122 2.74408 12.2559C2.5878 12.0996 2.5 11.8877 2.5 11.6667V8.33333C2.5 8.11232 2.5878 7.90036 2.74408 7.74408C2.90036 7.5878 3.11232 7.5 3.33333 7.5H5L6.07833 6.11333" fill="white"/>
<path d="M2.5 2.5L17.5 17.5L2.5 2.5Z" fill="white"/>
<path d="M12.5 6.66667C13.1236 7.13437 13.6035 7.76762 13.8852 8.49445C14.1668 9.22128 14.2389 10.0126 14.0933 10.7783M12.9458 12.9467C12.8065 13.0859 12.6576 13.2151 12.5 13.3333M14.75 4.16667C16.0875 5.24754 17.0129 6.75518 17.3712 8.43704C17.7296 10.1189 17.4991 11.8728 16.7183 13.405M15.3217 15.3208C15.14 15.5013 14.9492 15.6724 14.75 15.8333M9.16667 9.16667V15.8333C9.19328 15.9902 9.16291 16.1514 9.08103 16.2879C8.99915 16.4243 8.87117 16.527 8.72021 16.5773C8.56925 16.6276 8.40528 16.6223 8.25791 16.5623C8.11054 16.5022 7.9895 16.3915 7.91667 16.25L5 12.5H3.33333C3.11232 12.5 2.90036 12.4122 2.74408 12.2559C2.5878 12.0996 2.5 11.8877 2.5 11.6667V8.33333C2.5 8.11232 2.5878 7.90036 2.74408 7.74408C2.90036 7.5878 3.11232 7.5 3.33333 7.5H5L6.07833 6.11333M2.5 2.5L17.5 17.5M7.5575 4.21167L7.91667 3.75C7.9895 3.60853 8.11054 3.49777 8.25791 3.43774C8.40528 3.37772 8.56925 3.37238 8.72021 3.4227C8.87117 3.47302 8.99915 3.57568 9.08103 3.71212C9.16291 3.84856 9.19328 4.00979 9.16667 4.16667V5.83333L7.5575 4.21167Z" stroke="white" stroke-width="1.75" stroke-linecap="round" stroke-linejoin="round"/>
</svg>
