<svg width="20" height="20" viewBox="0 0 20 20" fill="none" xmlns="http://www.w3.org/2000/svg">
<path d="M6.66667 3.75V10.8333L5.44167 9.60833C5.19628 9.36323 4.87604 9.20715 4.5318 9.16487C4.18756 9.1226 3.83906 9.19655 3.54167 9.375C3.26246 9.5424 3.05957 9.81212 2.97615 10.1268C2.89274 10.4415 2.93538 10.7763 3.095 11.06C4.66083 13.8433 5.57333 15.4342 5.83333 15.8333C5.88756 15.9168 5.94201 16.0001 5.99667 16.0833C6.4521 16.7749 7.07215 17.3425 7.80115 17.7352C8.53016 18.128 9.34528 18.3335 10.1733 18.3333C11.0014 18.3332 11.6667 18.3333 11.6667 18.3333C12.9927 18.3333 14.2645 17.8065 15.2022 16.8689C16.1399 15.9312 16.6667 14.6594 16.6667 13.3333V9.58333C16.6667 9.25181 16.535 8.93387 16.3005 8.69945C16.0661 8.46503 15.7482 8.33333 15.4167 8.33333C15.0851 8.33333 14.7672 8.46503 14.5328 8.69945C14.2987 8.9335 14.1671 9.25082 14.1667 9.58179V8.75C14.1667 8.41848 14.035 8.10054 13.8006 7.86612C13.5661 7.6317 13.2482 7.5 12.9167 7.5C12.5851 7.5 12.2672 7.6317 12.0328 7.86612C11.7984 8.10054 11.6667 8.41848 11.6667 8.75V7.91667C11.6667 7.75251 11.6343 7.58997 11.5715 7.43831C11.5087 7.28666 11.4166 7.14886 11.3006 7.03278C11.1845 6.91671 11.0467 6.82464 10.895 6.76182C10.7434 6.699 10.5808 6.66667 10.4167 6.66667C10.2525 6.66667 10.09 6.699 9.93831 6.76182C9.78666 6.82464 9.64886 6.91671 9.53278 7.03278C9.41671 7.14886 9.32464 7.28666 9.26182 7.43831C9.199 7.58997 9.16667 7.75251 9.16667 7.91667V3.75C9.16667 3.41848 9.03497 3.10054 8.80055 2.86612C8.56613 2.6317 8.24819 2.5 7.91667 2.5C7.58515 2.5 7.2672 2.6317 7.03278 2.86612C6.79836 3.10054 6.66667 3.41848 6.66667 3.75Z" fill="white"/>
</svg>
