<svg width="20" height="20" viewBox="0 0 20 20" fill="none" xmlns="http://www.w3.org/2000/svg">
<path d="M4.17079 8.25031L7.76627 7.95175C7.95656 7.93595 8.12124 7.81315 8.19067 7.63527L9.53422 4.19326C9.69983 3.769 10.3002 3.76901 10.4658 4.19326L11.8093 7.63527C11.8787 7.81314 12.0434 7.93595 12.2337 7.95175L15.8292 8.25031C16.2685 8.28678 16.4491 8.83258 16.1182 9.12387L13.3353 11.574C13.1972 11.6956 13.1371 11.8833 13.1787 12.0625L14.0427 15.78C14.145 16.22 13.6576 16.5592 13.2805 16.3107L10.2752 14.3296C10.1082 14.2195 9.89175 14.2195 9.7248 14.3296L6.7195 16.3106C6.34238 16.5592 5.85504 16.22 5.95729 15.78L6.82124 12.0625C6.8629 11.8833 6.80274 11.6956 6.66463 11.574L3.88176 9.12387C3.55092 8.83258 3.7315 8.28678 4.17079 8.25031Z" fill="white" stroke="white" stroke-width="1.75"/>
</svg>
