<svg width="20" height="20" viewBox="0 0 20 20" fill="none" xmlns="http://www.w3.org/2000/svg">
<path d="M5.36845 15L7.25487 10.0993C7.30375 9.97228 7.39125 9.86279 7.50569 9.78548C7.62012 9.70817 7.75605 9.66672 7.8953 9.66667H16.3161M5.36845 15H14.9654C15.2838 14.9999 15.5921 14.8917 15.8374 14.694C16.0827 14.4962 16.2496 14.2213 16.3092 13.9167L16.9907 10.4427C17.007 10.3472 17.0018 10.2494 16.9754 10.1561C16.949 10.0628 16.9021 9.97627 16.8379 9.90243C16.7737 9.82859 16.6937 9.76925 16.6036 9.72854C16.5135 9.68782 16.4154 9.66671 16.3161 9.66667M5.36845 15C5.00552 15 4.65745 14.8595 4.40081 14.6095C4.14418 14.3594 4 14.0203 4 13.6667V6.33333C4 5.97971 4.14418 5.64057 4.40081 5.39052C4.65745 5.14048 5.00552 5 5.36845 5H8.10536L10.158 7H14.9476C15.3106 7 15.6586 7.14048 15.9153 7.39052C16.1719 7.64057 16.3161 7.97971 16.3161 8.33333V9.66667" stroke="white" stroke-width="1.66667" stroke-linecap="round" stroke-linejoin="round"/>
</svg>
