<svg width="20" height="20" viewBox="0 0 20 20" fill="none" xmlns="http://www.w3.org/2000/svg">
<path d="M3.82149 11.3215C3.50893 11.6341 3.33334 12.058 3.33334 12.5V15C3.33334 15.442 3.50893 15.866 3.82149 16.1785C4.13405 16.4911 4.55797 16.6667 5 16.6667H5.83334C6.27536 16.6667 6.69928 16.4911 7.01184 16.1785C7.32441 15.866 7.5 15.442 7.5 15V12.5C7.5 12.058 7.32441 11.6341 7.01184 11.3215C6.69928 11.0089 6.27536 10.8333 5.83334 10.8333H5C4.55797 10.8333 4.13405 11.0089 3.82149 11.3215Z" fill="white"/>
<path d="M12.9882 11.3215C12.6756 11.6341 12.5 12.058 12.5 12.5V15C12.5 15.442 12.6756 15.866 12.9882 16.1785C13.3007 16.4911 13.7246 16.6667 14.1667 16.6667H15C15.442 16.6667 15.866 16.4911 16.1785 16.1785C16.4911 15.866 16.6667 15.442 16.6667 15V12.5C16.6667 12.058 16.4911 11.6341 16.1785 11.3215C15.866 11.0089 15.442 10.8333 15 10.8333H14.1667C13.7246 10.8333 13.3007 11.0089 12.9882 11.3215Z" fill="white"/>
<path d="M3.33334 12.5C3.33334 12.058 3.50893 11.6341 3.82149 11.3215C4.13405 11.0089 4.55797 10.8333 5 10.8333H5.83334C6.27536 10.8333 6.69928 11.0089 7.01184 11.3215C7.32441 11.6341 7.5 12.058 7.5 12.5V15C7.5 15.442 7.32441 15.866 7.01184 16.1785C6.69928 16.4911 6.27536 16.6667 5.83334 16.6667H5C4.55797 16.6667 4.13405 16.4911 3.82149 16.1785C3.50893 15.866 3.33334 15.442 3.33334 15V12.5ZM3.33334 12.5V10C3.33334 8.2319 4.03571 6.53621 5.28596 5.28596C6.5362 4.03572 8.23189 3.33334 10 3.33334C11.7681 3.33334 13.4638 4.03572 14.714 5.28596C15.9643 6.53621 16.6667 8.2319 16.6667 10V12.5M16.6667 12.5C16.6667 12.058 16.4911 11.6341 16.1785 11.3215C15.866 11.0089 15.442 10.8333 15 10.8333H14.1667C13.7246 10.8333 13.3007 11.0089 12.9882 11.3215C12.6756 11.6341 12.5 12.058 12.5 12.5V15C12.5 15.442 12.6756 15.866 12.9882 16.1785C13.3007 16.4911 13.7246 16.6667 14.1667 16.6667H15C15.442 16.6667 15.866 16.4911 16.1785 16.1785C16.4911 15.866 16.6667 15.442 16.6667 15V12.5Z" stroke="white" stroke-width="1.75" stroke-linecap="round" stroke-linejoin="round"/>
</svg>
