<svg width="20" height="20" viewBox="0 0 20 20" fill="none" xmlns="http://www.w3.org/2000/svg">
<path d="M8.33333 10C8.33333 10.442 8.50893 10.866 8.82149 11.1785C9.13405 11.4911 9.55797 11.6667 10 11.6667C10.442 11.6667 10.8659 11.4911 11.1785 11.1785C11.4911 10.866 11.6667 10.442 11.6667 10C11.6667 9.55797 11.4911 9.13405 11.1785 8.82149C10.8659 8.50893 10.442 8.33333 10 8.33333C9.55797 8.33333 9.13405 8.50893 8.82149 8.82149C8.50893 9.13405 8.33333 9.55797 8.33333 10Z" fill="white"/>
<path d="M15.35 13.0083C15.5125 12.8458 15.7054 12.7169 15.9178 12.629C16.1301 12.541 16.3577 12.4957 16.5875 12.4957C16.8173 12.4957 17.0449 12.541 17.2572 12.629C17.4696 12.7169 17.6625 12.8458 17.825 13.0083C17.9875 13.1708 18.1164 13.3638 18.2044 13.5761C18.2923 13.7884 18.3376 14.016 18.3376 14.2458C18.3376 14.4757 18.2923 14.7032 18.2044 14.9156C18.1164 15.1279 17.9875 15.3208 17.825 15.4833L15 18.3333H12.5V15.8333L15.35 13.0083Z" fill="white"/>
<path d="M9.32667 14.9717C6.625 14.7383 4.35 13.0808 2.5 10C4.5 6.66667 7 5 10 5C12.7717 5 15.1167 6.4225 17.035 9.26833M8.33333 10C8.33333 10.442 8.50893 10.866 8.82149 11.1785C9.13405 11.4911 9.55797 11.6667 10 11.6667C10.442 11.6667 10.866 11.4911 11.1785 11.1785C11.4911 10.866 11.6667 10.442 11.6667 10C11.6667 9.55797 11.4911 9.13405 11.1785 8.82149C10.866 8.50893 10.442 8.33333 10 8.33333C9.55797 8.33333 9.13405 8.50893 8.82149 8.82149C8.50893 9.13405 8.33333 9.55797 8.33333 10ZM15.35 13.0083C15.5125 12.8458 15.7054 12.7169 15.9178 12.629C16.1301 12.541 16.3577 12.4957 16.5875 12.4957C16.8173 12.4957 17.0449 12.541 17.2572 12.629C17.4696 12.7169 17.6625 12.8458 17.825 13.0083C17.9875 13.1708 18.1164 13.3638 18.2044 13.5761C18.2923 13.7884 18.3376 14.016 18.3376 14.2458C18.3376 14.4757 18.2923 14.7032 18.2044 14.9156C18.1164 15.1279 17.9875 15.3208 17.825 15.4833L15 18.3333H12.5V15.8333L15.35 13.0083Z" stroke="white" stroke-width="1.75" stroke-linecap="round" stroke-linejoin="round"/>
</svg>
