<svg width="20" height="20" viewBox="0 0 20 20" fill="none" xmlns="http://www.w3.org/2000/svg">
<path d="M14.5833 8.75L15.4167 7.91666C15.8587 7.47464 16.107 6.87512 16.107 6.25C16.107 5.62488 15.8587 5.02536 15.4167 4.58333C14.9746 4.1413 14.3751 3.89297 13.75 3.89297C13.1249 3.89297 12.5254 4.1413 12.0833 4.58333L11.25 5.41666L14.5833 8.75Z" fill="white"/>
<path d="M15.4167 7.91666L6.66666 16.6667H3.33333V13.3333L12.0833 4.58333M15.4167 7.91666C15.8587 7.47464 16.107 6.87512 16.107 6.25C16.107 5.62488 15.8587 5.02536 15.4167 4.58333C14.9746 4.1413 14.3751 3.89297 13.75 3.89297C13.1249 3.89297 12.5254 4.1413 12.0833 4.58333M15.4167 7.91666L14.5833 8.75L11.25 5.41666L12.0833 4.58333" stroke="white" stroke-width="1.75" stroke-linecap="round" stroke-linejoin="round"/>
</svg>
