<svg width="20" height="20" viewBox="0 0 20 20" fill="none" xmlns="http://www.w3.org/2000/svg">
<path d="M13.3334 9.99997L10 6.66664L3.33337 13.3333V16.6666H6.66671L13.3334 9.99997Z" fill="white"/>
<path d="M9.16671 5.83331L10 6.66664M14.1667 10.8333L13.3334 9.99997M13.3334 9.99997L10 6.66664M13.3334 9.99997L6.66671 16.6666H3.33337V13.3333L10 6.66664M13.3334 9.99997L16.4167 6.91664C16.5694 6.76087 16.6549 6.55143 16.6549 6.33331C16.6549 6.11518 16.5694 5.90575 16.4167 5.74997L14.25 3.58331C14.0943 3.43062 13.8848 3.34509 13.6667 3.34509C13.4486 3.34509 13.2391 3.43062 13.0834 3.58331L10 6.66664" stroke="white" stroke-width="1.75" stroke-linecap="round" stroke-linejoin="round"/>
</svg>
