<svg width="20" height="20" viewBox="0 0 20 20" fill="none" xmlns="http://www.w3.org/2000/svg">
<path d="M5 4.99999C5 4.77898 5.0878 4.56701 5.24408 4.41073C5.40036 4.25445 5.61232 4.16666 5.83333 4.16666H7.5C7.72101 4.16666 7.93298 4.25445 8.08926 4.41073C8.24554 4.56701 8.33333 4.77898 8.33333 4.99999V15C8.33333 15.221 8.24554 15.433 8.08926 15.5892C7.93298 15.7455 7.72101 15.8333 7.5 15.8333H5.83333C5.61232 15.8333 5.40036 15.7455 5.24408 15.5892C5.0878 15.433 5 15.221 5 15V4.99999Z" stroke="white" stroke-width="1.75" stroke-linecap="round" stroke-linejoin="round"/>
<path d="M11.6667 4.99999C11.6667 4.77898 11.7545 4.56701 11.9107 4.41073C12.067 4.25445 12.279 4.16666 12.5 4.16666H14.1667C14.3877 4.16666 14.5996 4.25445 14.7559 4.41073C14.9122 4.56701 15 4.77898 15 4.99999V15C15 15.221 14.9122 15.433 14.7559 15.5892C14.5996 15.7455 14.3877 15.8333 14.1667 15.8333H12.5C12.279 15.8333 12.067 15.7455 11.9107 15.5892C11.7545 15.433 11.6667 15.221 11.6667 15V4.99999Z" stroke="white" stroke-width="1.75" stroke-linecap="round" stroke-linejoin="round"/>
</svg>
