<svg width="20" height="20" viewBox="0 0 20 20" fill="none" xmlns="http://www.w3.org/2000/svg">
<path d="M8.33332 8.33332H5.83332L2.91666 5.41666C2.47105 6.34968 2.32566 7.39791 2.50051 8.41699C2.67536 9.43607 3.16184 10.3759 3.89297 11.107C4.6241 11.8381 5.56391 12.3246 6.58299 12.4995C7.60207 12.6743 8.6503 12.5289 9.58332 12.0833L12.0833 9.58332C12.5289 8.6503 12.6743 7.60207 12.4995 6.58299C12.3246 5.56391 11.8381 4.6241 11.107 3.89297C10.3759 3.16184 9.43607 2.67536 8.41699 2.50051C7.39791 2.32566 6.34968 2.47105 5.41666 2.91666L8.33332 5.83332V8.33332Z" fill="white"/>
<path d="M12.0833 9.58332C12.5289 8.6503 12.6743 7.60207 12.4995 6.58299C12.3246 5.56391 11.8381 4.6241 11.107 3.89297C10.3759 3.16184 9.43607 2.67536 8.41699 2.50051C7.39791 2.32566 6.34968 2.47105 5.41666 2.91666L8.33332 5.83332V8.33332H5.83332L2.91666 5.41666C2.47105 6.34968 2.32566 7.39791 2.50051 8.41699C2.67536 9.43607 3.16184 10.3759 3.89297 11.107C4.6241 11.8381 5.56391 12.3246 6.58299 12.4995C7.60207 12.6743 8.6503 12.5289 9.58332 12.0833M12.0833 9.58332L17.0833 14.5833C17.4148 14.9148 17.6011 15.3645 17.6011 15.8333C17.6011 16.3022 17.4148 16.7518 17.0833 17.0833C16.7518 17.4148 16.3022 17.6011 15.8333 17.6011C15.3645 17.6011 14.9148 17.4148 14.5833 17.0833L9.58332 12.0833M12.0833 9.58332L9.58332 12.0833" stroke="white" stroke-width="1.75" stroke-linecap="round" stroke-linejoin="round"/>
</svg>
