<svg width="20" height="20" viewBox="0 0 20 20" fill="none" xmlns="http://www.w3.org/2000/svg">
<path d="M15 7.5L17.5 5L15 2.5L12.5 5L15 7.5Z" fill="white"/>
<path d="M15.8333 10.8333C15.8333 11.2754 16.0089 11.6993 16.3215 12.0118C16.634 12.3244 17.058 12.5 17.5 12.5C17.058 12.5 16.634 12.6756 16.3215 12.9882C16.0089 13.3007 15.8333 13.7246 15.8333 14.1667C15.8333 13.7246 15.6577 13.3007 15.3452 12.9882C15.0326 12.6756 14.6087 12.5 14.1667 12.5C14.6087 12.5 15.0326 12.3244 15.3452 12.0118C15.6577 11.6993 15.8333 11.2754 15.8333 10.8333Z" fill="white"/>
<path d="M7.5 2.5C7.5 2.94203 7.67559 3.36595 7.98816 3.67851C8.30072 3.99107 8.72464 4.16667 9.16667 4.16667C8.72464 4.16667 8.30072 4.34226 7.98816 4.65482C7.67559 4.96738 7.5 5.39131 7.5 5.83333C7.5 5.39131 7.32441 4.96738 7.01184 4.65482C6.69928 4.34226 6.27536 4.16667 5.83333 4.16667C6.27536 4.16667 6.69928 3.99107 7.01184 3.67851C7.32441 3.36595 7.5 2.94203 7.5 2.5Z" fill="white"/>
<path d="M5 17.5L17.5 5M5 17.5L2.5 15M5 17.5L15 7.5M17.5 5L15 2.5M17.5 5L15 7.5M15 2.5L2.5 15M15 2.5L12.5 5M2.5 15L12.5 5M12.5 5L15 7.5M7.5 2.5C7.5 2.94203 7.67559 3.36595 7.98816 3.67851C8.30072 3.99107 8.72464 4.16667 9.16667 4.16667C8.72464 4.16667 8.30072 4.34226 7.98816 4.65482C7.67559 4.96738 7.5 5.39131 7.5 5.83333C7.5 5.39131 7.32441 4.96738 7.01184 4.65482C6.69928 4.34226 6.27536 4.16667 5.83333 4.16667C6.27536 4.16667 6.69928 3.99107 7.01184 3.67851C7.32441 3.36595 7.5 2.94203 7.5 2.5ZM15.8333 10.8333C15.8333 11.2754 16.0089 11.6993 16.3215 12.0118C16.634 12.3244 17.058 12.5 17.5 12.5C17.058 12.5 16.634 12.6756 16.3215 12.9882C16.0089 13.3007 15.8333 13.7246 15.8333 14.1667C15.8333 13.7246 15.6577 13.3007 15.3452 12.9882C15.0326 12.6756 14.6087 12.5 14.1667 12.5C14.6087 12.5 15.0326 12.3244 15.3452 12.0118C15.6577 11.6993 15.8333 11.2754 15.8333 10.8333Z" stroke="white" stroke-width="1.75" stroke-linecap="round" stroke-linejoin="round"/>
</svg>
