<svg width="20" height="20" viewBox="0 0 20 20" fill="none" xmlns="http://www.w3.org/2000/svg">
<path d="M3.33334 4.16668C3.33334 4.38769 3.42114 4.59965 3.57742 4.75593C3.7337 4.91221 3.94566 5.00001 4.16668 5.00001C4.38769 5.00001 4.59965 4.91221 4.75593 4.75593C4.91221 4.59965 5.00001 4.38769 5.00001 4.16668C5.00001 3.94566 4.91221 3.7337 4.75593 3.57742C4.59965 3.42114 4.38769 3.33334 4.16668 3.33334C3.94566 3.33334 3.7337 3.42114 3.57742 3.57742C3.42114 3.7337 3.33334 3.94566 3.33334 4.16668Z" stroke="white" stroke-width="1.75" stroke-linecap="round" stroke-linejoin="round"/>
<path d="M9.16668 4.16668C9.16668 4.38769 9.25447 4.59965 9.41076 4.75593C9.56704 4.91221 9.779 5.00001 10 5.00001C10.221 5.00001 10.433 4.91221 10.5893 4.75593C10.7455 4.59965 10.8333 4.38769 10.8333 4.16668C10.8333 3.94566 10.7455 3.7337 10.5893 3.57742C10.433 3.42114 10.221 3.33334 10 3.33334C9.779 3.33334 9.56704 3.42114 9.41076 3.57742C9.25447 3.7337 9.16668 3.94566 9.16668 4.16668Z" stroke="white" stroke-width="1.75" stroke-linecap="round" stroke-linejoin="round"/>
<path d="M15 4.16668C15 4.38769 15.0878 4.59965 15.2441 4.75593C15.4004 4.91221 15.6123 5.00001 15.8333 5.00001C16.0544 5.00001 16.2663 4.91221 16.4226 4.75593C16.5789 4.59965 16.6667 4.38769 16.6667 4.16668C16.6667 3.94566 16.5789 3.7337 16.4226 3.57742C16.2663 3.42114 16.0544 3.33334 15.8333 3.33334C15.6123 3.33334 15.4004 3.42114 15.2441 3.57742C15.0878 3.7337 15 3.94566 15 4.16668Z" stroke="white" stroke-width="1.75" stroke-linecap="round" stroke-linejoin="round"/>
<path d="M3.33334 10C3.33334 10.221 3.42114 10.433 3.57742 10.5893C3.7337 10.7455 3.94566 10.8333 4.16668 10.8333C4.38769 10.8333 4.59965 10.7455 4.75593 10.5893C4.91221 10.433 5.00001 10.221 5.00001 10C5.00001 9.779 4.91221 9.56704 4.75593 9.41076C4.59965 9.25447 4.38769 9.16668 4.16668 9.16668C3.94566 9.16668 3.7337 9.25447 3.57742 9.41076C3.42114 9.56704 3.33334 9.779 3.33334 10Z" stroke="white" stroke-width="1.75" stroke-linecap="round" stroke-linejoin="round"/>
<path d="M9.16668 10C9.16668 10.221 9.25447 10.433 9.41076 10.5893C9.56704 10.7455 9.779 10.8333 10 10.8333C10.221 10.8333 10.433 10.7455 10.5893 10.5893C10.7455 10.433 10.8333 10.221 10.8333 10C10.8333 9.779 10.7455 9.56704 10.5893 9.41076C10.433 9.25447 10.221 9.16668 10 9.16668C9.779 9.16668 9.56704 9.25447 9.41076 9.41076C9.25447 9.56704 9.16668 9.779 9.16668 10Z" stroke="white" stroke-width="1.75" stroke-linecap="round" stroke-linejoin="round"/>
<path d="M15 10C15 10.221 15.0878 10.433 15.2441 10.5893C15.4004 10.7455 15.6123 10.8333 15.8333 10.8333C16.0544 10.8333 16.2663 10.7455 16.4226 10.5893C16.5789 10.433 16.6667 10.221 16.6667 10C16.6667 9.779 16.5789 9.56704 16.4226 9.41076C16.2663 9.25447 16.0544 9.16668 15.8333 9.16668C15.6123 9.16668 15.4004 9.25447 15.2441 9.41076C15.0878 9.56704 15 9.779 15 10Z" stroke="white" stroke-width="1.75" stroke-linecap="round" stroke-linejoin="round"/>
<path d="M3.33334 15.8333C3.33334 16.0544 3.42114 16.2663 3.57742 16.4226C3.7337 16.5789 3.94566 16.6667 4.16668 16.6667C4.38769 16.6667 4.59965 16.5789 4.75593 16.4226C4.91221 16.2663 5.00001 16.0544 5.00001 15.8333C5.00001 15.6123 4.91221 15.4004 4.75593 15.2441C4.59965 15.0878 4.38769 15 4.16668 15C3.94566 15 3.7337 15.0878 3.57742 15.2441C3.42114 15.4004 3.33334 15.6123 3.33334 15.8333Z" stroke="white" stroke-width="1.75" stroke-linecap="round" stroke-linejoin="round"/>
<path d="M9.16668 15.8333C9.16668 16.0544 9.25447 16.2663 9.41076 16.4226C9.56704 16.5789 9.779 16.6667 10 16.6667C10.221 16.6667 10.433 16.5789 10.5893 16.4226C10.7455 16.2663 10.8333 16.0544 10.8333 15.8333C10.8333 15.6123 10.7455 15.4004 10.5893 15.2441C10.433 15.0878 10.221 15 10 15C9.779 15 9.56704 15.0878 9.41076 15.2441C9.25447 15.4004 9.16668 15.6123 9.16668 15.8333Z" stroke="white" stroke-width="1.75" stroke-linecap="round" stroke-linejoin="round"/>
<path d="M15 15.8333C15 16.0544 15.0878 16.2663 15.2441 16.4226C15.4004 16.5789 15.6123 16.6667 15.8333 16.6667C16.0544 16.6667 16.2663 16.5789 16.4226 16.4226C16.5789 16.2663 16.6667 16.0544 16.6667 15.8333C16.6667 15.6123 16.5789 15.4004 16.4226 15.2441C16.2663 15.0878 16.0544 15 15.8333 15C15.6123 15 15.4004 15.0878 15.2441 15.2441C15.0878 15.4004 15 15.6123 15 15.8333Z" stroke="white" stroke-width="1.75" stroke-linecap="round" stroke-linejoin="round"/>
</svg>
