<svg width="20" height="20" viewBox="0 0 20 20" fill="none" xmlns="http://www.w3.org/2000/svg">
<path d="M3.33333 6.66667V4.16667C3.33333 3.72464 3.50892 3.30072 3.82148 2.98816C4.13404 2.67559 4.55797 2.5 4.99999 2.5H5.83333C6.27536 2.5 6.69928 2.67559 7.01184 2.98816C7.3244 3.30072 7.49999 3.72464 7.49999 4.16667V6.66667H3.33333Z" fill="white"/>
<path d="M12.5 6.66667V4.16667C12.5 3.72464 12.6756 3.30072 12.9882 2.98816C13.3007 2.67559 13.7246 2.5 14.1667 2.5H15C15.442 2.5 15.8659 2.67559 16.1785 2.98816C16.4911 3.30072 16.6667 3.72464 16.6667 4.16667V6.66667H12.5Z" fill="white"/>
<path d="M3.33333 10.8333V4.16667M3.33333 10.8333C3.33333 12.6014 4.03571 14.2971 5.28595 15.5474C6.53619 16.7976 8.23188 17.5 9.99999 17.5C11.7681 17.5 13.4638 16.7976 14.714 15.5474C15.9643 14.2971 16.6667 12.6014 16.6667 10.8333V4.16667M3.33333 10.8333V6.66667M3.33333 4.16667C3.33333 3.72464 3.50892 3.30072 3.82148 2.98816C4.13404 2.67559 4.55797 2.5 4.99999 2.5H5.83333C6.27536 2.5 6.69928 2.67559 7.01184 2.98816C7.3244 3.30072 7.49999 3.72464 7.49999 4.16667M3.33333 4.16667V6.66667M7.49999 4.16667V10.8333M7.49999 4.16667V6.66667M7.49999 10.8333C7.49999 11.4964 7.76339 12.1323 8.23223 12.6011C8.70107 13.0699 9.33695 13.3333 9.99999 13.3333C10.663 13.3333 11.2989 13.0699 11.7678 12.6011C12.2366 12.1323 12.5 11.4964 12.5 10.8333M7.49999 10.8333V6.66667M12.5 10.8333V4.16667M12.5 10.8333V6.66667M12.5 4.16667C12.5 3.72464 12.6756 3.30072 12.9882 2.98816C13.3007 2.67559 13.7246 2.5 14.1667 2.5H15C15.442 2.5 15.8659 2.67559 16.1785 2.98816C16.4911 3.30072 16.6667 3.72464 16.6667 4.16667M12.5 4.16667V6.66667M16.6667 4.16667V6.66667H12.5M3.33333 6.66667H7.49999" stroke="white" stroke-width="1.75" stroke-linecap="round" stroke-linejoin="round"/>
</svg>
