<svg width="20" height="20" viewBox="0 0 20 20" fill="none" xmlns="http://www.w3.org/2000/svg">
<path d="M7.16667 7.16668L15.8333 15.8333M7.16667 12.8333L15.8333 4.16668M2.5 5.83334C2.5 6.49638 2.76339 7.13227 3.23223 7.60111C3.70108 8.06995 4.33696 8.33334 5 8.33334C5.66304 8.33334 6.29893 8.06995 6.76777 7.60111C7.23661 7.13227 7.5 6.49638 7.5 5.83334C7.5 5.1703 7.23661 4.53442 6.76777 4.06558C6.29893 3.59674 5.66304 3.33334 5 3.33334C4.33696 3.33334 3.70108 3.59674 3.23223 4.06558C2.76339 4.53442 2.5 5.1703 2.5 5.83334ZM2.5 14.1667C2.5 14.8297 2.76339 15.4656 3.23223 15.9344C3.70108 16.4033 4.33696 16.6667 5 16.6667C5.66304 16.6667 6.29893 16.4033 6.76777 15.9344C7.23661 15.4656 7.5 14.8297 7.5 14.1667C7.5 13.5036 7.23661 12.8678 6.76777 12.3989C6.29893 11.9301 5.66304 11.6667 5 11.6667C4.33696 11.6667 3.70108 11.9301 3.23223 12.3989C2.76339 12.8678 2.5 13.5036 2.5 14.1667Z" stroke="white" stroke-width="1.75" stroke-linecap="round" stroke-linejoin="round"/>
</svg>
