<svg width="256" height="256" viewBox="0 0 256 256" fill="none" xmlns="http://www.w3.org/2000/svg">
<rect width="256" height="256" rx="128" fill="url(#paint0_linear_390_9684)"/>
<path d="M107.385 58.6003C108.518 60.6628 108.6 63.1522 107.728 65.3379C101.962 79.794 96.1952 98.7148 90.4287 122.1C89.5423 125.695 86.3267 128.241 82.6241 128.241L48.7503 128.241C43.5134 128.241 39.6943 123.26 41.0891 118.212C63.1876 38.2358 85.2862 18.3651 107.385 58.6003Z" fill="#336BCC"/>
<path d="M132 128.241C156.437 215.283 177.865 231.459 200.05 196.907C201.4 194.804 201.568 192.173 200.665 189.842C195.156 175.611 189.618 157.132 184.018 134.382C183.133 130.787 179.917 128.241 176.215 128.241L132 128.241Z" fill="#336BCC"/>
<path d="M45.981 101.364C74.6072 9.3458 103.233 18.1869 131.86 127.888C103.233 73.5801 74.6072 64.7391 45.981 101.364Z" fill="white"/>
<path d="M217.6 154.547C187.596 246.166 160.689 238.399 132 128.241C160.774 183.027 188.009 191.382 217.6 154.547Z" fill="white"/>
<defs>
<linearGradient id="paint0_linear_390_9684" x1="128" y1="0" x2="128" y2="256" gradientUnits="userSpaceOnUse">
<stop stop-color="#343434"/>
<stop offset="0.49" stop-color="#202020"/>
<stop offset="1" stop-color="#0C0C0C"/>
</linearGradient>
</defs>
</svg>
